<?xml version="1.0" encoding="utf-8" standalone="no"?>
<!DOCTYPE svg PUBLIC "-//W3C//DTD SVG 1.1//EN"
  "http://www.w3.org/Graphics/SVG/1.1/DTD/svg11.dtd">
<svg xmlns:xlink="http://www.w3.org/1999/xlink" width="504pt" height="360pt" viewBox="0 0 504 360" xmlns="http://www.w3.org/2000/svg" version="1.1">
 <metadata>
  <rdf:RDF xmlns:dc="http://purl.org/dc/elements/1.1/" xmlns:cc="http://creativecommons.org/ns#" xmlns:rdf="http://www.w3.org/1999/02/22-rdf-syntax-ns#">
   <cc:Work>
    <dc:type rdf:resource="http://purl.org/dc/dcmitype/StillImage"/>
    <dc:date>2023-09-28T11:52:43.197895</dc:date>
    <dc:format>image/svg+xml</dc:format>
    <dc:creator>
     <cc:Agent>
      <dc:title>Matplotlib v3.6.0, https://matplotlib.org/</dc:title>
     </cc:Agent>
    </dc:creator>
   </cc:Work>
  </rdf:RDF>
 </metadata>
 <defs>
  <style type="text/css">*{stroke-linejoin: round; stroke-linecap: butt}</style>
 </defs>
 <g id="figure_1">
  <g id="patch_1">
   <path d="M 0 360 
L 504 360 
L 504 0 
L 0 0 
z
" style="fill: #ffffff"/>
  </g>
  <g id="axes_1">
   <g id="patch_2">
    <path d="M 63 320.4 
L 453.6 320.4 
L 453.6 43.2 
L 63 43.2 
z
" style="fill: #ffffff"/>
   </g>
   <g id="PathCollection_1">
    <defs>
     <path id="m10912494c9" d="M 0 3 
C 0.795609 3 1.55874 2.683901 2.12132 2.12132 
C 2.683901 1.55874 3 0.795609 3 0 
C 3 -0.795609 2.683901 -1.55874 2.12132 -2.12132 
C 1.55874 -2.683901 0.795609 -3 0 -3 
C -0.795609 -3 -1.55874 -2.683901 -2.12132 -2.12132 
C -2.683901 -1.55874 -3 -0.795609 -3 0 
C -3 0.795609 -2.683901 1.55874 -2.12132 2.12132 
C -1.55874 2.683901 -0.795609 3 0 3 
z
" style="stroke: #ff0000"/>
    </defs>
    <g clip-path="url(#p3a9101bbb2)">
     <use xlink:href="#m10912494c9" x="158.249956" y="224.586457" style="fill: #ff0000; stroke: #ff0000"/>
     <use xlink:href="#m10912494c9" x="213.769055" y="236.328708" style="fill: #ff0000; stroke: #ff0000"/>
     <use xlink:href="#m10912494c9" x="158.249956" y="246.062525" style="fill: #ff0000; stroke: #ff0000"/>
     <use xlink:href="#m10912494c9" x="130.490406" y="235.03816" style="fill: #ff0000; stroke: #ff0000"/>
     <use xlink:href="#m10912494c9" x="121.237222" y="263.337542" style="fill: #ff0000; stroke: #ff0000"/>
     <use xlink:href="#m10912494c9" x="158.249956" y="225.091561" style="fill: #ff0000; stroke: #ff0000"/>
     <use xlink:href="#m10912494c9" x="93.477672" y="278.680701" style="fill: #ff0000; stroke: #ff0000"/>
     <use xlink:href="#m10912494c9" x="102.730856" y="285.558229" style="fill: #ff0000; stroke: #ff0000"/>
     <use xlink:href="#m10912494c9" x="158.249956" y="230.329694" style="fill: #ff0000; stroke: #ff0000"/>
     <use xlink:href="#m10912494c9" x="158.249956" y="164.689659" style="fill: #ff0000; stroke: #ff0000"/>
     <use xlink:href="#m10912494c9" x="158.249956" y="256.16246" style="fill: #ff0000; stroke: #ff0000"/>
     <use xlink:href="#m10912494c9" x="102.730856" y="249.007117" style="fill: #ff0000; stroke: #ff0000"/>
     <use xlink:href="#m10912494c9" x="158.249956" y="223.814463" style="fill: #ff0000; stroke: #ff0000"/>
     <use xlink:href="#m10912494c9" x="158.249956" y="203.83434" style="fill: #ff0000; stroke: #ff0000"/>
     <use xlink:href="#m10912494c9" x="213.769055" y="196.157929" style="fill: #ff0000; stroke: #ff0000"/>
     <use xlink:href="#m10912494c9" x="130.490406" y="212.348443" style="fill: #ff0000; stroke: #ff0000"/>
     <use xlink:href="#m10912494c9" x="130.490406" y="192.483861" style="fill: #ff0000; stroke: #ff0000"/>
     <use xlink:href="#m10912494c9" x="186.009505" y="239.267823" style="fill: #ff0000; stroke: #ff0000"/>
     <use xlink:href="#m10912494c9" x="80.754545" y="252.388896" style="fill: #ff0000; stroke: #ff0000"/>
     <use xlink:href="#m10912494c9" x="269.288155" y="55.8" style="fill: #ff0000; stroke: #ff0000"/>
     <use xlink:href="#m10912494c9" x="102.730856" y="205.236034" style="fill: #ff0000; stroke: #ff0000"/>
     <use xlink:href="#m10912494c9" x="130.490406" y="307.8" style="fill: #ff0000; stroke: #ff0000"/>
     <use xlink:href="#m10912494c9" x="186.009505" y="235.972251" style="fill: #ff0000; stroke: #ff0000"/>
     <use xlink:href="#m10912494c9" x="158.249956" y="242.277468" style="fill: #ff0000; stroke: #ff0000"/>
     <use xlink:href="#m10912494c9" x="130.490406" y="283.795056" style="fill: #ff0000; stroke: #ff0000"/>
     <use xlink:href="#m10912494c9" x="101.574208" y="277.603505" style="fill: #ff0000; stroke: #ff0000"/>
     <use xlink:href="#m10912494c9" x="241.528605" y="290.851015" style="fill: #ff0000; stroke: #ff0000"/>
     <use xlink:href="#m10912494c9" x="213.769055" y="224.141621" style="fill: #ff0000; stroke: #ff0000"/>
     <use xlink:href="#m10912494c9" x="213.769055" y="222.669625" style="fill: #ff0000; stroke: #ff0000"/>
     <use xlink:href="#m10912494c9" x="88.851081" y="268.073464" style="fill: #ff0000; stroke: #ff0000"/>
     <use xlink:href="#m10912494c9" x="102.730856" y="254.689037" style="fill: #ff0000; stroke: #ff0000"/>
     <use xlink:href="#m10912494c9" x="102.730856" y="243.470046" style="fill: #ff0000; stroke: #ff0000"/>
     <use xlink:href="#m10912494c9" x="158.249956" y="220.106116" style="fill: #ff0000; stroke: #ff0000"/>
     <use xlink:href="#m10912494c9" x="186.009505" y="252.245986" style="fill: #ff0000; stroke: #ff0000"/>
     <use xlink:href="#m10912494c9" x="102.730856" y="236.326671" style="fill: #ff0000; stroke: #ff0000"/>
     <use xlink:href="#m10912494c9" x="158.249956" y="256.804156" style="fill: #ff0000; stroke: #ff0000"/>
     <use xlink:href="#m10912494c9" x="158.249956" y="222.761631" style="fill: #ff0000; stroke: #ff0000"/>
     <use xlink:href="#m10912494c9" x="213.769055" y="212.850328" style="fill: #ff0000; stroke: #ff0000"/>
     <use xlink:href="#m10912494c9" x="186.009505" y="229.032563" style="fill: #ff0000; stroke: #ff0000"/>
     <use xlink:href="#m10912494c9" x="102.730856" y="268.427252" style="fill: #ff0000; stroke: #ff0000"/>
     <use xlink:href="#m10912494c9" x="158.249956" y="219.602116" style="fill: #ff0000; stroke: #ff0000"/>
     <use xlink:href="#m10912494c9" x="186.009505" y="246.401561" style="fill: #ff0000; stroke: #ff0000"/>
     <use xlink:href="#m10912494c9" x="102.730856" y="248.795017" style="fill: #ff0000; stroke: #ff0000"/>
     <use xlink:href="#m10912494c9" x="158.249956" y="223.339775" style="fill: #ff0000; stroke: #ff0000"/>
     <use xlink:href="#m10912494c9" x="130.490406" y="279.499249" style="fill: #ff0000; stroke: #ff0000"/>
     <use xlink:href="#m10912494c9" x="102.730856" y="240.153002" style="fill: #ff0000; stroke: #ff0000"/>
     <use xlink:href="#m10912494c9" x="158.249956" y="259.901767" style="fill: #ff0000; stroke: #ff0000"/>
     <use xlink:href="#m10912494c9" x="130.490406" y="239.448978" style="fill: #ff0000; stroke: #ff0000"/>
     <use xlink:href="#m10912494c9" x="158.249956" y="227.008386" style="fill: #ff0000; stroke: #ff0000"/>
     <use xlink:href="#m10912494c9" x="158.249956" y="230.728465" style="fill: #ff0000; stroke: #ff0000"/>
     <use xlink:href="#m10912494c9" x="130.490406" y="228.166166" style="fill: #ff0000; stroke: #ff0000"/>
     <use xlink:href="#m10912494c9" x="158.249956" y="213.311664" style="fill: #ff0000; stroke: #ff0000"/>
     <use xlink:href="#m10912494c9" x="144.370181" y="243.987784" style="fill: #ff0000; stroke: #ff0000"/>
     <use xlink:href="#m10912494c9" x="130.490406" y="234.80726" style="fill: #ff0000; stroke: #ff0000"/>
     <use xlink:href="#m10912494c9" x="130.490406" y="258.172348" style="fill: #ff0000; stroke: #ff0000"/>
     <use xlink:href="#m10912494c9" x="158.249956" y="229.908319" style="fill: #ff0000; stroke: #ff0000"/>
     <use xlink:href="#m10912494c9" x="158.249956" y="232.966632" style="fill: #ff0000; stroke: #ff0000"/>
     <use xlink:href="#m10912494c9" x="130.490406" y="259.437775" style="fill: #ff0000; stroke: #ff0000"/>
     <use xlink:href="#m10912494c9" x="158.249956" y="285.83973" style="fill: #ff0000; stroke: #ff0000"/>
     <use xlink:href="#m10912494c9" x="158.249956" y="260.259574" style="fill: #ff0000; stroke: #ff0000"/>
     <use xlink:href="#m10912494c9" x="158.249956" y="236.005375" style="fill: #ff0000; stroke: #ff0000"/>
     <use xlink:href="#m10912494c9" x="98.104264" y="254.092536" style="fill: #ff0000; stroke: #ff0000"/>
     <use xlink:href="#m10912494c9" x="158.249956" y="219.144628" style="fill: #ff0000; stroke: #ff0000"/>
     <use xlink:href="#m10912494c9" x="158.249956" y="231.955119" style="fill: #ff0000; stroke: #ff0000"/>
     <use xlink:href="#m10912494c9" x="158.249956" y="233.265838" style="fill: #ff0000; stroke: #ff0000"/>
     <use xlink:href="#m10912494c9" x="158.249956" y="219.243592" style="fill: #ff0000; stroke: #ff0000"/>
     <use xlink:href="#m10912494c9" x="102.730856" y="212.426658" style="fill: #ff0000; stroke: #ff0000"/>
     <use xlink:href="#m10912494c9" x="130.490406" y="219.615187" style="fill: #ff0000; stroke: #ff0000"/>
     <use xlink:href="#m10912494c9" x="102.730856" y="274.600974" style="fill: #ff0000; stroke: #ff0000"/>
     <use xlink:href="#m10912494c9" x="186.009505" y="232.399849" style="fill: #ff0000; stroke: #ff0000"/>
     <use xlink:href="#m10912494c9" x="102.730856" y="256.885752" style="fill: #ff0000; stroke: #ff0000"/>
     <use xlink:href="#m10912494c9" x="269.288155" y="238.897875" style="fill: #ff0000; stroke: #ff0000"/>
     <use xlink:href="#m10912494c9" x="88.851081" y="195.573994" style="fill: #ff0000; stroke: #ff0000"/>
     <use xlink:href="#m10912494c9" x="213.769055" y="210.13013" style="fill: #ff0000; stroke: #ff0000"/>
     <use xlink:href="#m10912494c9" x="130.490406" y="255.551905" style="fill: #ff0000; stroke: #ff0000"/>
     <use xlink:href="#m10912494c9" x="158.249956" y="229.700292" style="fill: #ff0000; stroke: #ff0000"/>
     <use xlink:href="#m10912494c9" x="158.249956" y="231.472749" style="fill: #ff0000; stroke: #ff0000"/>
     <use xlink:href="#m10912494c9" x="102.730856" y="198.598897" style="fill: #ff0000; stroke: #ff0000"/>
     <use xlink:href="#m10912494c9" x="158.249956" y="185.227672" style="fill: #ff0000; stroke: #ff0000"/>
     <use xlink:href="#m10912494c9" x="213.769055" y="241.752395" style="fill: #ff0000; stroke: #ff0000"/>
     <use xlink:href="#m10912494c9" x="186.009505" y="170.343217" style="fill: #ff0000; stroke: #ff0000"/>
     <use xlink:href="#m10912494c9" x="199.88928" y="275.600049" style="fill: #ff0000; stroke: #ff0000"/>
     <use xlink:href="#m10912494c9" x="102.730856" y="195.292038" style="fill: #ff0000; stroke: #ff0000"/>
     <use xlink:href="#m10912494c9" x="435.845455" y="247.397092" style="fill: #ff0000; stroke: #ff0000"/>
     <use xlink:href="#m10912494c9" x="213.769055" y="249.631449" style="fill: #ff0000; stroke: #ff0000"/>
     <use xlink:href="#m10912494c9" x="213.769055" y="215.743447" style="fill: #ff0000; stroke: #ff0000"/>
     <use xlink:href="#m10912494c9" x="130.490406" y="206.66287" style="fill: #ff0000; stroke: #ff0000"/>
     <use xlink:href="#m10912494c9" x="158.249956" y="272.856259" style="fill: #ff0000; stroke: #ff0000"/>
     <use xlink:href="#m10912494c9" x="88.851081" y="237.533104" style="fill: #ff0000; stroke: #ff0000"/>
     <use xlink:href="#m10912494c9" x="158.249956" y="206.845047" style="fill: #ff0000; stroke: #ff0000"/>
     <use xlink:href="#m10912494c9" x="158.249956" y="182.95889" style="fill: #ff0000; stroke: #ff0000"/>
     <use xlink:href="#m10912494c9" x="213.769055" y="226.621183" style="fill: #ff0000; stroke: #ff0000"/>
     <use xlink:href="#m10912494c9" x="130.490406" y="288.922142" style="fill: #ff0000; stroke: #ff0000"/>
     <use xlink:href="#m10912494c9" x="130.490406" y="237.936259" style="fill: #ff0000; stroke: #ff0000"/>
     <use xlink:href="#m10912494c9" x="158.249956" y="83.631006" style="fill: #ff0000; stroke: #ff0000"/>
     <use xlink:href="#m10912494c9" x="102.730856" y="227.911406" style="fill: #ff0000; stroke: #ff0000"/>
     <use xlink:href="#m10912494c9" x="352.566805" y="235.516648" style="fill: #ff0000; stroke: #ff0000"/>
     <use xlink:href="#m10912494c9" x="158.249956" y="213.395709" style="fill: #ff0000; stroke: #ff0000"/>
     <use xlink:href="#m10912494c9" x="158.249956" y="228.867719" style="fill: #ff0000; stroke: #ff0000"/>
     <use xlink:href="#m10912494c9" x="158.249956" y="233.840467" style="fill: #ff0000; stroke: #ff0000"/>
     <use xlink:href="#m10912494c9" x="158.249956" y="223.408518" style="fill: #ff0000; stroke: #ff0000"/>
     <use xlink:href="#m10912494c9" x="158.249956" y="222.791492" style="fill: #ff0000; stroke: #ff0000"/>
     <use xlink:href="#m10912494c9" x="158.249956" y="229.814612" style="fill: #ff0000; stroke: #ff0000"/>
     <use xlink:href="#m10912494c9" x="102.730856" y="274.618774" style="fill: #ff0000; stroke: #ff0000"/>
     <use xlink:href="#m10912494c9" x="241.528605" y="234.120839" style="fill: #ff0000; stroke: #ff0000"/>
     <use xlink:href="#m10912494c9" x="158.249956" y="231.56858" style="fill: #ff0000; stroke: #ff0000"/>
     <use xlink:href="#m10912494c9" x="186.009505" y="208.103152" style="fill: #ff0000; stroke: #ff0000"/>
     <use xlink:href="#m10912494c9" x="130.490406" y="258.683618" style="fill: #ff0000; stroke: #ff0000"/>
    </g>
   </g>
   <g id="matplotlib.axis_1">
    <g id="xtick_1">
     <g id="line2d_1">
      <path d="M 74.971306 320.4 
L 74.971306 43.2 
" clip-path="url(#p3a9101bbb2)" style="fill: none; stroke-dasharray: 2.96,1.28; stroke-dashoffset: 0; stroke: #b0b0b0; stroke-width: 0.8"/>
     </g>
     <g id="line2d_2">
      <defs>
       <path id="ma62bfc37a9" d="M 0 0 
L 0 3.5 
" style="stroke: #000000; stroke-width: 0.8"/>
      </defs>
      <g>
       <use xlink:href="#ma62bfc37a9" x="74.971306" y="320.4" style="stroke: #000000; stroke-width: 0.8"/>
      </g>
     </g>
     <g id="text_1">
      <!-- 0 -->
      <g transform="translate(71.634743 335.989375) scale(0.12 -0.12)">
       <defs>
        <path id="Arial-BoldMT-30" d="M 1756 4600 
Q 2422 4600 2797 4125 
Q 3244 3563 3244 2259 
Q 3244 959 2794 391 
Q 2422 -78 1756 -78 
Q 1088 -78 678 436 
Q 269 950 269 2269 
Q 269 3563 719 4131 
Q 1091 4600 1756 4600 
z
M 1756 3872 
Q 1597 3872 1472 3770 
Q 1347 3669 1278 3406 
Q 1188 3066 1188 2259 
Q 1188 1453 1269 1151 
Q 1350 850 1473 750 
Q 1597 650 1756 650 
Q 1916 650 2041 751 
Q 2166 853 2234 1116 
Q 2325 1453 2325 2259 
Q 2325 3066 2244 3367 
Q 2163 3669 2039 3770 
Q 1916 3872 1756 3872 
z
" transform="scale(0.015625)"/>
       </defs>
       <use xlink:href="#Arial-BoldMT-30"/>
      </g>
     </g>
    </g>
    <g id="xtick_2">
     <g id="line2d_3">
      <path d="M 132.803702 320.4 
L 132.803702 43.2 
" clip-path="url(#p3a9101bbb2)" style="fill: none; stroke-dasharray: 2.96,1.28; stroke-dashoffset: 0; stroke: #b0b0b0; stroke-width: 0.8"/>
     </g>
     <g id="line2d_4">
      <g>
       <use xlink:href="#ma62bfc37a9" x="132.803702" y="320.4" style="stroke: #000000; stroke-width: 0.8"/>
      </g>
     </g>
     <g id="text_2">
      <!-- 50 -->
      <g transform="translate(126.130577 335.989375) scale(0.12 -0.12)">
       <defs>
        <path id="Arial-BoldMT-35" d="M 284 1178 
L 1159 1269 
Q 1197 972 1381 798 
Q 1566 625 1806 625 
Q 2081 625 2272 848 
Q 2463 1072 2463 1522 
Q 2463 1944 2273 2155 
Q 2084 2366 1781 2366 
Q 1403 2366 1103 2031 
L 391 2134 
L 841 4519 
L 3163 4519 
L 3163 3697 
L 1506 3697 
L 1369 2919 
Q 1663 3066 1969 3066 
Q 2553 3066 2959 2641 
Q 3366 2216 3366 1538 
Q 3366 972 3038 528 
Q 2591 -78 1797 -78 
Q 1163 -78 763 262 
Q 363 603 284 1178 
z
" transform="scale(0.015625)"/>
       </defs>
       <use xlink:href="#Arial-BoldMT-35"/>
       <use xlink:href="#Arial-BoldMT-30" x="55.615234"/>
      </g>
     </g>
    </g>
    <g id="xtick_3">
     <g id="line2d_5">
      <path d="M 190.636097 320.4 
L 190.636097 43.2 
" clip-path="url(#p3a9101bbb2)" style="fill: none; stroke-dasharray: 2.96,1.28; stroke-dashoffset: 0; stroke: #b0b0b0; stroke-width: 0.8"/>
     </g>
     <g id="line2d_6">
      <g>
       <use xlink:href="#ma62bfc37a9" x="190.636097" y="320.4" style="stroke: #000000; stroke-width: 0.8"/>
      </g>
     </g>
     <g id="text_3">
      <!-- 100 -->
      <g transform="translate(180.62641 335.989375) scale(0.12 -0.12)">
       <defs>
        <path id="Arial-BoldMT-31" d="M 2519 0 
L 1641 0 
L 1641 3309 
Q 1159 2859 506 2644 
L 506 3441 
Q 850 3553 1253 3867 
Q 1656 4181 1806 4600 
L 2519 4600 
L 2519 0 
z
" transform="scale(0.015625)"/>
       </defs>
       <use xlink:href="#Arial-BoldMT-31"/>
       <use xlink:href="#Arial-BoldMT-30" x="55.615234"/>
       <use xlink:href="#Arial-BoldMT-30" x="111.230469"/>
      </g>
     </g>
    </g>
    <g id="xtick_4">
     <g id="line2d_7">
      <path d="M 248.468493 320.4 
L 248.468493 43.2 
" clip-path="url(#p3a9101bbb2)" style="fill: none; stroke-dasharray: 2.96,1.28; stroke-dashoffset: 0; stroke: #b0b0b0; stroke-width: 0.8"/>
     </g>
     <g id="line2d_8">
      <g>
       <use xlink:href="#ma62bfc37a9" x="248.468493" y="320.4" style="stroke: #000000; stroke-width: 0.8"/>
      </g>
     </g>
     <g id="text_4">
      <!-- 150 -->
      <g transform="translate(238.458805 335.989375) scale(0.12 -0.12)">
       <use xlink:href="#Arial-BoldMT-31"/>
       <use xlink:href="#Arial-BoldMT-35" x="55.615234"/>
       <use xlink:href="#Arial-BoldMT-30" x="111.230469"/>
      </g>
     </g>
    </g>
    <g id="xtick_5">
     <g id="line2d_9">
      <path d="M 306.300888 320.4 
L 306.300888 43.2 
" clip-path="url(#p3a9101bbb2)" style="fill: none; stroke-dasharray: 2.96,1.28; stroke-dashoffset: 0; stroke: #b0b0b0; stroke-width: 0.8"/>
     </g>
     <g id="line2d_10">
      <g>
       <use xlink:href="#ma62bfc37a9" x="306.300888" y="320.4" style="stroke: #000000; stroke-width: 0.8"/>
      </g>
     </g>
     <g id="text_5">
      <!-- 200 -->
      <g transform="translate(296.291201 335.989375) scale(0.12 -0.12)">
       <defs>
        <path id="Arial-BoldMT-32" d="M 3238 816 
L 3238 0 
L 159 0 
Q 209 463 459 877 
Q 709 1291 1447 1975 
Q 2041 2528 2175 2725 
Q 2356 2997 2356 3263 
Q 2356 3556 2198 3714 
Q 2041 3872 1763 3872 
Q 1488 3872 1325 3706 
Q 1163 3541 1138 3156 
L 263 3244 
Q 341 3969 753 4284 
Q 1166 4600 1784 4600 
Q 2463 4600 2850 4234 
Q 3238 3869 3238 3325 
Q 3238 3016 3127 2736 
Q 3016 2456 2775 2150 
Q 2616 1947 2200 1565 
Q 1784 1184 1673 1059 
Q 1563 934 1494 816 
L 3238 816 
z
" transform="scale(0.015625)"/>
       </defs>
       <use xlink:href="#Arial-BoldMT-32"/>
       <use xlink:href="#Arial-BoldMT-30" x="55.615234"/>
       <use xlink:href="#Arial-BoldMT-30" x="111.230469"/>
      </g>
     </g>
    </g>
    <g id="xtick_6">
     <g id="line2d_11">
      <path d="M 364.133284 320.4 
L 364.133284 43.2 
" clip-path="url(#p3a9101bbb2)" style="fill: none; stroke-dasharray: 2.96,1.28; stroke-dashoffset: 0; stroke: #b0b0b0; stroke-width: 0.8"/>
     </g>
     <g id="line2d_12">
      <g>
       <use xlink:href="#ma62bfc37a9" x="364.133284" y="320.4" style="stroke: #000000; stroke-width: 0.8"/>
      </g>
     </g>
     <g id="text_6">
      <!-- 250 -->
      <g transform="translate(354.123596 335.989375) scale(0.12 -0.12)">
       <use xlink:href="#Arial-BoldMT-32"/>
       <use xlink:href="#Arial-BoldMT-35" x="55.615234"/>
       <use xlink:href="#Arial-BoldMT-30" x="111.230469"/>
      </g>
     </g>
    </g>
    <g id="xtick_7">
     <g id="line2d_13">
      <path d="M 421.96568 320.4 
L 421.96568 43.2 
" clip-path="url(#p3a9101bbb2)" style="fill: none; stroke-dasharray: 2.96,1.28; stroke-dashoffset: 0; stroke: #b0b0b0; stroke-width: 0.8"/>
     </g>
     <g id="line2d_14">
      <g>
       <use xlink:href="#ma62bfc37a9" x="421.96568" y="320.4" style="stroke: #000000; stroke-width: 0.8"/>
      </g>
     </g>
     <g id="text_7">
      <!-- 300 -->
      <g transform="translate(411.955992 335.989375) scale(0.12 -0.12)">
       <defs>
        <path id="Arial-BoldMT-33" d="M 241 1216 
L 1091 1319 
Q 1131 994 1309 822 
Q 1488 650 1741 650 
Q 2013 650 2198 856 
Q 2384 1063 2384 1413 
Q 2384 1744 2206 1937 
Q 2028 2131 1772 2131 
Q 1603 2131 1369 2066 
L 1466 2781 
Q 1822 2772 2009 2936 
Q 2197 3100 2197 3372 
Q 2197 3603 2059 3740 
Q 1922 3878 1694 3878 
Q 1469 3878 1309 3722 
Q 1150 3566 1116 3266 
L 306 3403 
Q 391 3819 561 4067 
Q 731 4316 1036 4458 
Q 1341 4600 1719 4600 
Q 2366 4600 2756 4188 
Q 3078 3850 3078 3425 
Q 3078 2822 2419 2463 
Q 2813 2378 3048 2084 
Q 3284 1791 3284 1375 
Q 3284 772 2843 347 
Q 2403 -78 1747 -78 
Q 1125 -78 715 280 
Q 306 638 241 1216 
z
" transform="scale(0.015625)"/>
       </defs>
       <use xlink:href="#Arial-BoldMT-33"/>
       <use xlink:href="#Arial-BoldMT-30" x="55.615234"/>
       <use xlink:href="#Arial-BoldMT-30" x="111.230469"/>
      </g>
     </g>
    </g>
    <g id="text_8">
     <!-- Measured -->
     <g transform="translate(230.29125 350.946875) scale(0.12 -0.12)">
      <defs>
       <path id="Arial-BoldMT-4d" d="M 453 0 
L 453 4581 
L 1838 4581 
L 2669 1456 
L 3491 4581 
L 4878 4581 
L 4878 0 
L 4019 0 
L 4019 3606 
L 3109 0 
L 2219 0 
L 1313 3606 
L 1313 0 
L 453 0 
z
" transform="scale(0.015625)"/>
       <path id="Arial-BoldMT-65" d="M 2381 1056 
L 3256 909 
Q 3088 428 2723 176 
Q 2359 -75 1813 -75 
Q 947 -75 531 491 
Q 203 944 203 1634 
Q 203 2459 634 2926 
Q 1066 3394 1725 3394 
Q 2466 3394 2894 2905 
Q 3322 2416 3303 1406 
L 1103 1406 
Q 1113 1016 1316 798 
Q 1519 581 1822 581 
Q 2028 581 2168 693 
Q 2309 806 2381 1056 
z
M 2431 1944 
Q 2422 2325 2234 2523 
Q 2047 2722 1778 2722 
Q 1491 2722 1303 2513 
Q 1116 2303 1119 1944 
L 2431 1944 
z
" transform="scale(0.015625)"/>
       <path id="Arial-BoldMT-61" d="M 1116 2306 
L 319 2450 
Q 453 2931 781 3162 
Q 1109 3394 1756 3394 
Q 2344 3394 2631 3255 
Q 2919 3116 3036 2902 
Q 3153 2688 3153 2116 
L 3144 1091 
Q 3144 653 3186 445 
Q 3228 238 3344 0 
L 2475 0 
Q 2441 88 2391 259 
Q 2369 338 2359 363 
Q 2134 144 1878 34 
Q 1622 -75 1331 -75 
Q 819 -75 523 203 
Q 228 481 228 906 
Q 228 1188 362 1408 
Q 497 1628 739 1745 
Q 981 1863 1438 1950 
Q 2053 2066 2291 2166 
L 2291 2253 
Q 2291 2506 2166 2614 
Q 2041 2722 1694 2722 
Q 1459 2722 1328 2630 
Q 1197 2538 1116 2306 
z
M 2291 1594 
Q 2122 1538 1756 1459 
Q 1391 1381 1278 1306 
Q 1106 1184 1106 997 
Q 1106 813 1243 678 
Q 1381 544 1594 544 
Q 1831 544 2047 700 
Q 2206 819 2256 991 
Q 2291 1103 2291 1419 
L 2291 1594 
z
" transform="scale(0.015625)"/>
       <path id="Arial-BoldMT-73" d="M 150 947 
L 1031 1081 
Q 1088 825 1259 692 
Q 1431 559 1741 559 
Q 2081 559 2253 684 
Q 2369 772 2369 919 
Q 2369 1019 2306 1084 
Q 2241 1147 2013 1200 
Q 950 1434 666 1628 
Q 272 1897 272 2375 
Q 272 2806 612 3100 
Q 953 3394 1669 3394 
Q 2350 3394 2681 3172 
Q 3013 2950 3138 2516 
L 2309 2363 
Q 2256 2556 2107 2659 
Q 1959 2763 1684 2763 
Q 1338 2763 1188 2666 
Q 1088 2597 1088 2488 
Q 1088 2394 1175 2328 
Q 1294 2241 1995 2081 
Q 2697 1922 2975 1691 
Q 3250 1456 3250 1038 
Q 3250 581 2869 253 
Q 2488 -75 1741 -75 
Q 1063 -75 667 200 
Q 272 475 150 947 
z
" transform="scale(0.015625)"/>
       <path id="Arial-BoldMT-75" d="M 2644 0 
L 2644 497 
Q 2463 231 2167 78 
Q 1872 -75 1544 -75 
Q 1209 -75 943 72 
Q 678 219 559 484 
Q 441 750 441 1219 
L 441 3319 
L 1319 3319 
L 1319 1794 
Q 1319 1094 1367 936 
Q 1416 778 1544 686 
Q 1672 594 1869 594 
Q 2094 594 2272 717 
Q 2450 841 2515 1023 
Q 2581 1206 2581 1919 
L 2581 3319 
L 3459 3319 
L 3459 0 
L 2644 0 
z
" transform="scale(0.015625)"/>
       <path id="Arial-BoldMT-72" d="M 1300 0 
L 422 0 
L 422 3319 
L 1238 3319 
L 1238 2847 
Q 1447 3181 1614 3287 
Q 1781 3394 1994 3394 
Q 2294 3394 2572 3228 
L 2300 2463 
Q 2078 2606 1888 2606 
Q 1703 2606 1575 2504 
Q 1447 2403 1373 2137 
Q 1300 1872 1300 1025 
L 1300 0 
z
" transform="scale(0.015625)"/>
       <path id="Arial-BoldMT-64" d="M 3503 0 
L 2688 0 
L 2688 488 
Q 2484 203 2207 64 
Q 1931 -75 1650 -75 
Q 1078 -75 670 386 
Q 263 847 263 1672 
Q 263 2516 659 2955 
Q 1056 3394 1663 3394 
Q 2219 3394 2625 2931 
L 2625 4581 
L 3503 4581 
L 3503 0 
z
M 1159 1731 
Q 1159 1200 1306 963 
Q 1519 619 1900 619 
Q 2203 619 2415 876 
Q 2628 1134 2628 1647 
Q 2628 2219 2422 2470 
Q 2216 2722 1894 2722 
Q 1581 2722 1370 2473 
Q 1159 2225 1159 1731 
z
" transform="scale(0.015625)"/>
      </defs>
      <use xlink:href="#Arial-BoldMT-4d"/>
      <use xlink:href="#Arial-BoldMT-65" x="83.300781"/>
      <use xlink:href="#Arial-BoldMT-61" x="138.916016"/>
      <use xlink:href="#Arial-BoldMT-73" x="194.53125"/>
      <use xlink:href="#Arial-BoldMT-75" x="250.146484"/>
      <use xlink:href="#Arial-BoldMT-72" x="311.230469"/>
      <use xlink:href="#Arial-BoldMT-65" x="350.146484"/>
      <use xlink:href="#Arial-BoldMT-64" x="405.761719"/>
     </g>
    </g>
   </g>
   <g id="matplotlib.axis_2">
    <g id="ytick_1">
     <g id="line2d_15">
      <path d="M 63 314.469787 
L 453.6 314.469787 
" clip-path="url(#p3a9101bbb2)" style="fill: none; stroke-dasharray: 2.96,1.28; stroke-dashoffset: 0; stroke: #b0b0b0; stroke-width: 0.8"/>
     </g>
     <g id="line2d_16">
      <defs>
       <path id="mf9ecb7e880" d="M 0 0 
L -3.5 0 
" style="stroke: #000000; stroke-width: 0.8"/>
      </defs>
      <g>
       <use xlink:href="#mf9ecb7e880" x="63" y="314.469787" style="stroke: #000000; stroke-width: 0.8"/>
      </g>
     </g>
     <g id="text_9">
      <!-- 20 -->
      <g transform="translate(42.65375 318.764475) scale(0.12 -0.12)">
       <use xlink:href="#Arial-BoldMT-32"/>
       <use xlink:href="#Arial-BoldMT-30" x="55.615234"/>
      </g>
     </g>
    </g>
    <g id="ytick_2">
     <g id="line2d_17">
      <path d="M 63 280.018474 
L 453.6 280.018474 
" clip-path="url(#p3a9101bbb2)" style="fill: none; stroke-dasharray: 2.96,1.28; stroke-dashoffset: 0; stroke: #b0b0b0; stroke-width: 0.8"/>
     </g>
     <g id="line2d_18">
      <g>
       <use xlink:href="#mf9ecb7e880" x="63" y="280.018474" style="stroke: #000000; stroke-width: 0.8"/>
      </g>
     </g>
     <g id="text_10">
      <!-- 40 -->
      <g transform="translate(42.65375 284.313162) scale(0.12 -0.12)">
       <defs>
        <path id="Arial-BoldMT-34" d="M 1994 0 
L 1994 922 
L 119 922 
L 119 1691 
L 2106 4600 
L 2844 4600 
L 2844 1694 
L 3413 1694 
L 3413 922 
L 2844 922 
L 2844 0 
L 1994 0 
z
M 1994 1694 
L 1994 3259 
L 941 1694 
L 1994 1694 
z
" transform="scale(0.015625)"/>
       </defs>
       <use xlink:href="#Arial-BoldMT-34"/>
       <use xlink:href="#Arial-BoldMT-30" x="55.615234"/>
      </g>
     </g>
    </g>
    <g id="ytick_3">
     <g id="line2d_19">
      <path d="M 63 245.567162 
L 453.6 245.567162 
" clip-path="url(#p3a9101bbb2)" style="fill: none; stroke-dasharray: 2.96,1.28; stroke-dashoffset: 0; stroke: #b0b0b0; stroke-width: 0.8"/>
     </g>
     <g id="line2d_20">
      <g>
       <use xlink:href="#mf9ecb7e880" x="63" y="245.567162" style="stroke: #000000; stroke-width: 0.8"/>
      </g>
     </g>
     <g id="text_11">
      <!-- 60 -->
      <g transform="translate(42.65375 249.861849) scale(0.12 -0.12)">
       <defs>
        <path id="Arial-BoldMT-36" d="M 3247 3459 
L 2397 3366 
Q 2366 3628 2234 3753 
Q 2103 3878 1894 3878 
Q 1616 3878 1423 3628 
Q 1231 3378 1181 2588 
Q 1509 2975 1997 2975 
Q 2547 2975 2939 2556 
Q 3331 2138 3331 1475 
Q 3331 772 2918 347 
Q 2506 -78 1859 -78 
Q 1166 -78 719 461 
Q 272 1000 272 2228 
Q 272 3488 737 4044 
Q 1203 4600 1947 4600 
Q 2469 4600 2811 4308 
Q 3153 4016 3247 3459 
z
M 1256 1544 
Q 1256 1116 1453 883 
Q 1650 650 1903 650 
Q 2147 650 2309 840 
Q 2472 1031 2472 1466 
Q 2472 1913 2297 2120 
Q 2122 2328 1859 2328 
Q 1606 2328 1431 2129 
Q 1256 1931 1256 1544 
z
" transform="scale(0.015625)"/>
       </defs>
       <use xlink:href="#Arial-BoldMT-36"/>
       <use xlink:href="#Arial-BoldMT-30" x="55.615234"/>
      </g>
     </g>
    </g>
    <g id="ytick_4">
     <g id="line2d_21">
      <path d="M 63 211.115849 
L 453.6 211.115849 
" clip-path="url(#p3a9101bbb2)" style="fill: none; stroke-dasharray: 2.96,1.28; stroke-dashoffset: 0; stroke: #b0b0b0; stroke-width: 0.8"/>
     </g>
     <g id="line2d_22">
      <g>
       <use xlink:href="#mf9ecb7e880" x="63" y="211.115849" style="stroke: #000000; stroke-width: 0.8"/>
      </g>
     </g>
     <g id="text_12">
      <!-- 80 -->
      <g transform="translate(42.65375 215.410537) scale(0.12 -0.12)">
       <defs>
        <path id="Arial-BoldMT-38" d="M 1025 2472 
Q 684 2616 529 2867 
Q 375 3119 375 3419 
Q 375 3931 733 4265 
Q 1091 4600 1750 4600 
Q 2403 4600 2764 4265 
Q 3125 3931 3125 3419 
Q 3125 3100 2959 2851 
Q 2794 2603 2494 2472 
Q 2875 2319 3073 2025 
Q 3272 1731 3272 1347 
Q 3272 713 2867 316 
Q 2463 -81 1791 -81 
Q 1166 -81 750 247 
Q 259 634 259 1309 
Q 259 1681 443 1992 
Q 628 2303 1025 2472 
z
M 1206 3356 
Q 1206 3094 1354 2947 
Q 1503 2800 1750 2800 
Q 2000 2800 2150 2948 
Q 2300 3097 2300 3359 
Q 2300 3606 2151 3754 
Q 2003 3903 1759 3903 
Q 1506 3903 1356 3753 
Q 1206 3603 1206 3356 
z
M 1125 1394 
Q 1125 1031 1311 828 
Q 1497 625 1775 625 
Q 2047 625 2225 820 
Q 2403 1016 2403 1384 
Q 2403 1706 2222 1901 
Q 2041 2097 1763 2097 
Q 1441 2097 1283 1875 
Q 1125 1653 1125 1394 
z
" transform="scale(0.015625)"/>
       </defs>
       <use xlink:href="#Arial-BoldMT-38"/>
       <use xlink:href="#Arial-BoldMT-30" x="55.615234"/>
      </g>
     </g>
    </g>
    <g id="ytick_5">
     <g id="line2d_23">
      <path d="M 63 176.664537 
L 453.6 176.664537 
" clip-path="url(#p3a9101bbb2)" style="fill: none; stroke-dasharray: 2.96,1.28; stroke-dashoffset: 0; stroke: #b0b0b0; stroke-width: 0.8"/>
     </g>
     <g id="line2d_24">
      <g>
       <use xlink:href="#mf9ecb7e880" x="63" y="176.664537" style="stroke: #000000; stroke-width: 0.8"/>
      </g>
     </g>
     <g id="text_13">
      <!-- 100 -->
      <g transform="translate(35.980625 180.959224) scale(0.12 -0.12)">
       <use xlink:href="#Arial-BoldMT-31"/>
       <use xlink:href="#Arial-BoldMT-30" x="55.615234"/>
       <use xlink:href="#Arial-BoldMT-30" x="111.230469"/>
      </g>
     </g>
    </g>
    <g id="ytick_6">
     <g id="line2d_25">
      <path d="M 63 142.213224 
L 453.6 142.213224 
" clip-path="url(#p3a9101bbb2)" style="fill: none; stroke-dasharray: 2.96,1.28; stroke-dashoffset: 0; stroke: #b0b0b0; stroke-width: 0.8"/>
     </g>
     <g id="line2d_26">
      <g>
       <use xlink:href="#mf9ecb7e880" x="63" y="142.213224" style="stroke: #000000; stroke-width: 0.8"/>
      </g>
     </g>
     <g id="text_14">
      <!-- 120 -->
      <g transform="translate(35.980625 146.507912) scale(0.12 -0.12)">
       <use xlink:href="#Arial-BoldMT-31"/>
       <use xlink:href="#Arial-BoldMT-32" x="55.615234"/>
       <use xlink:href="#Arial-BoldMT-30" x="111.230469"/>
      </g>
     </g>
    </g>
    <g id="ytick_7">
     <g id="line2d_27">
      <path d="M 63 107.761912 
L 453.6 107.761912 
" clip-path="url(#p3a9101bbb2)" style="fill: none; stroke-dasharray: 2.96,1.28; stroke-dashoffset: 0; stroke: #b0b0b0; stroke-width: 0.8"/>
     </g>
     <g id="line2d_28">
      <g>
       <use xlink:href="#mf9ecb7e880" x="63" y="107.761912" style="stroke: #000000; stroke-width: 0.8"/>
      </g>
     </g>
     <g id="text_15">
      <!-- 140 -->
      <g transform="translate(35.980625 112.056599) scale(0.12 -0.12)">
       <use xlink:href="#Arial-BoldMT-31"/>
       <use xlink:href="#Arial-BoldMT-34" x="55.615234"/>
       <use xlink:href="#Arial-BoldMT-30" x="111.230469"/>
      </g>
     </g>
    </g>
    <g id="ytick_8">
     <g id="line2d_29">
      <path d="M 63 73.310599 
L 453.6 73.310599 
" clip-path="url(#p3a9101bbb2)" style="fill: none; stroke-dasharray: 2.96,1.28; stroke-dashoffset: 0; stroke: #b0b0b0; stroke-width: 0.8"/>
     </g>
     <g id="line2d_30">
      <g>
       <use xlink:href="#mf9ecb7e880" x="63" y="73.310599" style="stroke: #000000; stroke-width: 0.8"/>
      </g>
     </g>
     <g id="text_16">
      <!-- 160 -->
      <g transform="translate(35.980625 77.605287) scale(0.12 -0.12)">
       <use xlink:href="#Arial-BoldMT-31"/>
       <use xlink:href="#Arial-BoldMT-36" x="55.615234"/>
       <use xlink:href="#Arial-BoldMT-30" x="111.230469"/>
      </g>
     </g>
    </g>
    <g id="text_17">
     <!-- Predicted -->
     <g transform="translate(29.6125 209.14125) rotate(-90) scale(0.12 -0.12)">
      <defs>
       <path id="Arial-BoldMT-50" d="M 466 0 
L 466 4581 
L 1950 4581 
Q 2794 4581 3050 4513 
Q 3444 4409 3709 4064 
Q 3975 3719 3975 3172 
Q 3975 2750 3822 2462 
Q 3669 2175 3433 2011 
Q 3197 1847 2953 1794 
Q 2622 1728 1994 1728 
L 1391 1728 
L 1391 0 
L 466 0 
z
M 1391 3806 
L 1391 2506 
L 1897 2506 
Q 2444 2506 2628 2578 
Q 2813 2650 2917 2803 
Q 3022 2956 3022 3159 
Q 3022 3409 2875 3571 
Q 2728 3734 2503 3775 
Q 2338 3806 1838 3806 
L 1391 3806 
z
" transform="scale(0.015625)"/>
       <path id="Arial-BoldMT-69" d="M 459 3769 
L 459 4581 
L 1338 4581 
L 1338 3769 
L 459 3769 
z
M 459 0 
L 459 3319 
L 1338 3319 
L 1338 0 
L 459 0 
z
" transform="scale(0.015625)"/>
       <path id="Arial-BoldMT-63" d="M 3353 2338 
L 2488 2181 
Q 2444 2441 2289 2572 
Q 2134 2703 1888 2703 
Q 1559 2703 1364 2476 
Q 1169 2250 1169 1719 
Q 1169 1128 1367 884 
Q 1566 641 1900 641 
Q 2150 641 2309 783 
Q 2469 925 2534 1272 
L 3397 1125 
Q 3263 531 2881 228 
Q 2500 -75 1859 -75 
Q 1131 -75 698 384 
Q 266 844 266 1656 
Q 266 2478 700 2936 
Q 1134 3394 1875 3394 
Q 2481 3394 2839 3133 
Q 3197 2872 3353 2338 
z
" transform="scale(0.015625)"/>
       <path id="Arial-BoldMT-74" d="M 1981 3319 
L 1981 2619 
L 1381 2619 
L 1381 1281 
Q 1381 875 1398 808 
Q 1416 741 1477 697 
Q 1538 653 1625 653 
Q 1747 653 1978 738 
L 2053 56 
Q 1747 -75 1359 -75 
Q 1122 -75 931 4 
Q 741 84 652 211 
Q 563 338 528 553 
Q 500 706 500 1172 
L 500 2619 
L 97 2619 
L 97 3319 
L 500 3319 
L 500 3978 
L 1381 4491 
L 1381 3319 
L 1981 3319 
z
" transform="scale(0.015625)"/>
      </defs>
      <use xlink:href="#Arial-BoldMT-50"/>
      <use xlink:href="#Arial-BoldMT-72" x="66.699219"/>
      <use xlink:href="#Arial-BoldMT-65" x="105.615234"/>
      <use xlink:href="#Arial-BoldMT-64" x="161.230469"/>
      <use xlink:href="#Arial-BoldMT-69" x="222.314453"/>
      <use xlink:href="#Arial-BoldMT-63" x="250.097656"/>
      <use xlink:href="#Arial-BoldMT-74" x="305.712891"/>
      <use xlink:href="#Arial-BoldMT-65" x="339.013672"/>
      <use xlink:href="#Arial-BoldMT-64" x="394.628906"/>
     </g>
    </g>
   </g>
   <g id="line2d_31">
    <path d="M 158.458055 224.586457 
L 150.573508 236.328708 
L 144.03756 246.062525 
L 151.44007 235.03816 
L 132.437937 263.337542 
L 158.118894 225.091561 
L 122.135495 278.680701 
L 117.517454 285.558229 
L 154.601655 230.329694 
L 198.676846 164.689659 
L 137.255775 256.16246 
L 142.06036 249.007117 
L 158.976425 223.814463 
L 172.39244 203.83434 
L 177.546906 196.157929 
L 166.675492 212.348443 
L 180.013925 192.483861 
L 148.599986 239.267823 
L 139.789604 252.388896 
L 271.792781 55.8 
L 171.451247 205.236034 
L 102.582814 307.8 
L 150.812858 235.972251 
L 146.579105 242.277468 
L 118.701368 283.795056 
L 122.858797 277.603505 
L 113.963517 290.851015 
L 158.756748 224.141621 
L 159.745147 222.669625 
L 129.257916 268.073464 
L 138.245132 254.689037 
L 145.778327 243.470046 
L 161.466462 220.106116 
L 139.885563 252.245986 
L 150.574876 236.326671 
L 136.824897 256.804156 
L 159.683368 222.761631 
L 166.338492 212.850328 
L 155.472637 229.032563 
L 129.020359 268.427252 
L 161.804881 219.602116 
L 143.809908 246.401561 
L 142.202779 248.795017 
L 159.295162 223.339775 
L 121.585866 279.499249 
L 148.005616 240.153002 
L 134.74495 259.901767 
L 148.478346 239.448978 
L 156.831807 227.008386 
L 154.333893 230.728465 
L 156.054394 228.166166 
L 166.02872 213.311664 
L 145.430682 243.987784 
L 151.595112 234.80726 
L 135.9062 258.172348 
L 154.884595 229.908319 
L 152.831035 232.966632 
L 135.056506 259.437775 
L 117.328435 285.83973 
L 134.504695 260.259574 
L 150.790616 236.005375 
L 138.645664 254.092536 
L 162.11207 219.144628 
L 153.510234 231.955119 
L 152.630128 233.265838 
L 162.045619 219.243592 
L 166.622972 212.426658 
L 161.796104 219.615187 
L 124.874901 274.600974 
L 153.211611 232.399849 
L 136.770108 256.885752 
L 148.848394 238.897875 
L 177.938999 195.573994 
L 168.165018 210.13013 
L 137.665744 255.551905 
L 155.024278 229.700292 
L 153.834129 231.472749 
L 175.907874 198.598897 
L 184.886225 185.227672 
L 146.931675 241.752395 
L 194.880662 170.343217 
L 124.204054 275.600049 
L 178.128324 195.292038 
L 143.141441 247.397092 
L 141.641141 249.631449 
L 164.395855 215.743447 
L 170.493173 206.66287 
L 126.046422 272.856259 
L 149.764794 237.533104 
L 170.370847 206.845047 
L 186.40964 182.95889 
L 157.091802 226.621183 
L 115.258693 288.922142 
L 149.494089 237.936259 
L 253.105147 83.631006 
L 156.225458 227.911406 
L 151.11878 235.516648 
L 165.972286 213.395709 
L 155.583325 228.867719 
L 152.244282 233.840467 
L 159.249004 223.408518 
L 159.663317 222.791492 
L 154.947516 229.814612 
L 124.862949 274.618774 
L 152.056022 234.120839 
L 153.769782 231.56858 
L 169.526069 208.103152 
L 135.562898 258.683618 
" clip-path="url(#p3a9101bbb2)" style="fill: none; stroke: #0000ff; stroke-width: 1.5; stroke-linecap: square"/>
   </g>
   <g id="patch_3">
    <path d="M 63 320.4 
L 63 43.2 
" style="fill: none; stroke: #000000; stroke-width: 0.8; stroke-linejoin: miter; stroke-linecap: square"/>
   </g>
   <g id="patch_4">
    <path d="M 453.6 320.4 
L 453.6 43.2 
" style="fill: none; stroke: #000000; stroke-width: 0.8; stroke-linejoin: miter; stroke-linecap: square"/>
   </g>
   <g id="patch_5">
    <path d="M 63 320.4 
L 453.6 320.4 
" style="fill: none; stroke: #000000; stroke-width: 0.8; stroke-linejoin: miter; stroke-linecap: square"/>
   </g>
   <g id="patch_6">
    <path d="M 63 43.2 
L 453.6 43.2 
" style="fill: none; stroke: #000000; stroke-width: 0.8; stroke-linejoin: miter; stroke-linecap: square"/>
   </g>
  </g>
 </g>
 <defs>
  <clipPath id="p3a9101bbb2">
   <rect x="63" y="43.2" width="390.6" height="277.2"/>
  </clipPath>
 </defs>
</svg>
